<?xml version="1.0" encoding="utf-8"?>
<!-- Generator: Adobe Illustrator 16.0.0, SVG Export Plug-In . SVG Version: 6.00 Build 0)  -->
<!DOCTYPE svg PUBLIC "-//W3C//DTD SVG 1.1//EN" "http://www.w3.org/Graphics/SVG/1.1/DTD/svg11.dtd">
<svg version="1.1" id="Calque_1" xmlns="http://www.w3.org/2000/svg" xmlns:xlink="http://www.w3.org/1999/xlink" x="0px" y="0px"
	 width="60.203px" height="50px" viewBox="0 0 60.203 50" enable-background="new 0 0 60.203 50" xml:space="preserve">
<g display="none">
	<path display="inline" fill="#FFFFFF" d="M44.944,26.441c0.079-1.01,0.109-2.008,0.09-2.98c-0.131-6.379-2.349-12.457-6.592-18.066
		c-3.091-4.09-6.417-6.736-7.703-7.686c-0.379-0.279-0.896-0.279-1.274,0c-1.287,0.949-4.612,3.596-7.703,7.686
		c-4.242,5.609-6.46,11.688-6.591,18.066c-0.021,0.973,0.011,1.971,0.09,2.98c-2.616,1.799-4.468,4.641-5.508,8.461
		c-0.569,2.092-0.87,4.416-0.87,6.717c0,2.977,0.546,5.912,1.579,8.488c0.164,0.408,0.561,0.674,0.997,0.674
		c0.017,0,0.034,0,0.051-0.002c0.456-0.02,0.849-0.328,0.98-0.768c0.361-1.225,1.318-3.541,3.649-5.305
		c1.858-1.406,3.795-1.873,5.107-2.014h17.71c1.313,0.141,3.248,0.607,5.106,2.014c2.335,1.768,3.289,4.082,3.649,5.305
		c0.13,0.438,0.522,0.746,0.98,0.768c0.017,0.002,0.034,0.002,0.051,0.002c0.437,0,0.832-0.266,0.997-0.674
		c1.033-2.572,1.579-5.508,1.579-8.488c0-2.301-0.301-4.625-0.87-6.717C49.41,31.082,47.56,28.24,44.944,26.441L44.944,26.441z
		 M30.103-0.074c1.431,1.127,4.15,3.49,6.715,6.92H23.387C25.952,3.416,28.672,1.053,30.103-0.074z M14.844,42.994
		c-1.499,1.135-2.525,2.453-3.228,3.664c-0.386-1.611-0.585-3.314-0.585-5.039c0-2.156,0.35-8.955,4.518-12.676
		c0.629,4.143,2.005,8.336,3.935,11.877C18.094,41.146,16.447,41.781,14.844,42.994L14.844,42.994z M21.794,40.545
		c-2.885-4.914-4.592-11.385-4.475-17.041c0.118-5.768,2.129-10.658,4.583-14.51h16.401c2.452,3.852,4.464,8.742,4.582,14.51
		c0.116,5.656-1.591,12.127-4.475,17.041H21.794z M48.588,46.656c-0.7-1.209-1.729-2.527-3.229-3.662
		c-1.603-1.213-3.249-1.848-4.638-2.174c1.929-3.541,3.305-7.734,3.935-11.877c4.166,3.721,4.516,10.52,4.516,12.676
		C49.172,43.344,48.973,45.047,48.588,46.656L48.588,46.656z"/>
	<path display="inline" fill="#FFFFFF" d="M9.479,20.002l2.85-1.121c0.552-0.217,0.822-0.842,0.605-1.393
		c-0.217-0.553-0.84-0.824-1.393-0.607l-2.849,1.121c-0.552,0.217-0.825,0.842-0.607,1.393c0.167,0.424,0.571,0.682,1.001,0.682
		C9.218,20.076,9.35,20.053,9.479,20.002z"/>
	<path display="inline" fill="#FFFFFF" d="M8.851,9.25l2.808,1.223c0.14,0.061,0.285,0.09,0.428,0.09
		c0.415,0,0.81-0.242,0.986-0.646c0.236-0.543-0.013-1.176-0.557-1.414L9.708,7.281C9.164,7.045,8.53,7.293,8.294,7.836
		C8.058,8.381,8.307,9.014,8.851,9.25z"/>
	<path display="inline" fill="#FFFFFF" d="M17.128,4.053c0.167,0.424,0.572,0.682,1,0.682c0.131,0,0.264-0.025,0.393-0.074
		c0.552-0.219,0.825-0.842,0.608-1.395l-1.122-2.85c-0.217-0.553-0.84-0.822-1.392-0.605c-0.553,0.217-0.825,0.84-0.608,1.393
		L17.128,4.053z"/>
	<path display="inline" fill="#FFFFFF" d="M51.512,18.002l-2.85-1.121c-0.553-0.217-1.177,0.055-1.394,0.607
		c-0.217,0.551,0.055,1.176,0.607,1.393l2.85,1.121c0.129,0.051,0.262,0.074,0.393,0.074c0.428,0,0.834-0.258,0.999-0.682
		C52.335,18.844,52.063,18.219,51.512,18.002L51.512,18.002z"/>
	<path display="inline" fill="#FFFFFF" d="M48.118,10.563c0.143,0,0.289-0.029,0.429-0.09l2.808-1.223
		c0.544-0.236,0.793-0.869,0.556-1.414c-0.237-0.543-0.87-0.791-1.413-0.555l-2.808,1.221c-0.544,0.238-0.793,0.871-0.557,1.414
		C47.31,10.32,47.705,10.563,48.118,10.563z"/>
	<path display="inline" fill="#FFFFFF" d="M41.683,4.66c0.129,0.049,0.262,0.074,0.394,0.074c0.429,0,0.833-0.258,1-0.682l1.12-2.85
		c0.217-0.553-0.054-1.176-0.605-1.393c-0.553-0.217-1.176,0.055-1.393,0.605l-1.121,2.85C40.86,3.818,41.131,4.441,41.683,4.66z"/>
	<path display="inline" fill="#FFFFFF" d="M30.164,16.477c-4.3,0-7.8,3.498-7.8,7.801c0,4.299,3.5,7.799,7.8,7.799
		s7.8-3.5,7.8-7.799C37.964,19.975,34.464,16.477,30.164,16.477z M30.164,29.928c-3.116,0-5.651-2.535-5.651-5.65
		c0-3.117,2.535-5.652,5.651-5.652s5.651,2.535,5.651,5.652C35.815,27.393,33.28,29.928,30.164,29.928z"/>
	<path display="inline" fill="#FFFFFF" d="M39.018,45.102h-4.081c-0.593,0-1.074,0.482-1.074,1.074c0,0.594,0.481,1.074,1.074,1.074
		h3.007v0.137c0,1.635-1.33,2.965-2.964,2.965h-9.754c-1.635,0-2.965-1.33-2.965-2.965V47.25h3.008c0.593,0,1.074-0.48,1.074-1.074
		c0-0.592-0.481-1.074-1.074-1.074h-4.082c-0.593,0-1.074,0.482-1.074,1.074v1.211c0,2.818,2.295,5.113,5.113,5.113h9.754
		c2.818,0,5.112-2.295,5.112-5.113v-1.211C40.092,45.582,39.611,45.102,39.018,45.102z"/>
	<ellipse display="inline" fill="#FFFFFF" cx="30.117" cy="46.188" rx="1.074" ry="1.074"/>
</g>
<g display="none">
	<circle display="inline" fill="#C09628" cx="30.102" cy="48.764" r="1.236"/>
	<path display="inline" fill="#C09628" d="M60.525,27.295h-2.225c-0.998-6.489-4.215-12.444-9.139-16.868
		c-2.232-2.006-4.743-3.626-7.436-4.826h11.486c0.534,1.806,2.207,3.127,4.185,3.127c2.407,0,4.364-1.958,4.364-4.364
		C61.762,1.957,59.805,0,57.397,0c-1.978,0-3.649,1.321-4.185,3.128H6.99C6.455,1.321,4.783,0,2.806,0
		C0.398,0-1.559,1.957-1.559,4.364c0,2.406,1.957,4.364,4.364,4.364c1.978,0,3.65-1.321,4.185-3.127h11.469
		C9.819,9.457,3.403,17.489,1.902,27.295h-2.225c-0.684,0-1.236,0.554-1.236,1.237v6.254c0,0.684,0.553,1.236,1.236,1.236h6.256
		c0.683,0,1.237-0.553,1.237-1.236v-6.254c0-0.684-0.555-1.237-1.237-1.237H4.407C6.393,15.473,16.223,6.559,28.148,5.673
		L15.859,25.856c-0.256,0.421-0.238,0.956,0.048,1.358l6.729,9.483v12.064c0,0.684,0.554,1.238,1.236,1.238h0.664
		c0.684,0,1.237-0.555,1.237-1.238c0-0.475-0.27-0.889-0.664-1.096V37.541h10.568v9.986h-0.011c-0.683,0-1.237,0.553-1.237,1.234
		c0,0.684,0.555,1.238,1.237,1.238h1.247c0.684,0,1.238-0.555,1.238-1.238V36.697l6.727-9.483c0.287-0.402,0.305-0.938,0.048-1.358
		L32.671,5.726c11.647,1.141,21.174,9.951,23.125,21.569H54.27c-0.683,0-1.236,0.554-1.236,1.237v6.254
		c0,0.684,0.554,1.236,1.236,1.236h6.256c0.684,0,1.236-0.553,1.236-1.236v-6.254C61.762,27.849,61.209,27.295,60.525,27.295
		L60.525,27.295z M57.397,2.473c1.043,0,1.892,0.849,1.892,1.891c0,1.043-0.849,1.892-1.892,1.892c-1.042,0-1.892-0.849-1.892-1.892
		C55.506,3.322,56.355,2.473,57.397,2.473L57.397,2.473z M2.806,6.255c-1.043,0-1.892-0.849-1.892-1.892
		c0-1.042,0.849-1.891,1.892-1.891c1.042,0,1.892,0.849,1.892,1.891C4.697,5.407,3.848,6.255,2.806,6.255z M4.697,29.768v3.783
		H0.914v-3.783H4.697z M42.391,26.447l-6.115,8.622H24.512l-6.116-8.622L29.156,8.773v14.163c0,0.683,0.554,1.236,1.237,1.236
		c0.683,0,1.236-0.554,1.236-1.236V8.773L42.391,26.447z M59.289,33.551h-3.783v-3.783h3.783V33.551z"/>
</g>
<g>
	<path fill="#C09628" d="M53.18,23.734H40.367c-0.648,0-1.176,0.527-1.176,1.176c0,0.65,0.527,1.176,1.176,1.176H53.18
		c0.65,0,1.176-0.525,1.176-1.176C54.355,24.262,53.83,23.734,53.18,23.734L53.18,23.734z"/>
	<path fill="#C09628" d="M53.18,29.092h-7.863c-0.648,0-1.176,0.527-1.176,1.176c0,0.65,0.527,1.176,1.176,1.176h7.863
		c0.65,0,1.176-0.525,1.176-1.176C54.355,29.619,53.83,29.092,53.18,29.092z"/>
	<path fill="#C09628" d="M53.18,34.451H40.367c-0.648,0-1.176,0.525-1.176,1.176c0,0.648,0.527,1.176,1.176,1.176H53.18
		c0.65,0,1.176-0.527,1.176-1.176C54.355,34.977,53.83,34.451,53.18,34.451L53.18,34.451z"/>
	<path fill="#C09628" d="M28.568,22.113c-0.459-0.461-1.203-0.459-1.662,0c-0.46,0.459-0.46,1.203,0,1.662l6.738,6.738l-6.738,6.738
		c-0.46,0.459-0.46,1.205,0,1.664c0.229,0.229,0.53,0.344,0.831,0.344s0.602-0.115,0.831-0.344l7.57-7.57
		c0.459-0.459,0.459-1.203,0-1.664L28.568,22.113z"/>
	<path fill="#C09628" d="M15.424,22.113c-0.459-0.461-1.203-0.461-1.662,0l-7.57,7.568c-0.459,0.459-0.459,1.205,0,1.664l7.57,7.57
		c0.229,0.229,0.53,0.344,0.831,0.344s0.603-0.115,0.831-0.344c0.46-0.459,0.46-1.205,0-1.664l-6.738-6.738l6.738-6.738
		C15.884,23.316,15.884,22.572,15.424,22.113L15.424,22.113z"/>
	<path fill="#C09628" d="M23.238,18.613c-0.64-0.113-1.25,0.314-1.362,0.953l-3.737,21.195c-0.113,0.641,0.314,1.25,0.953,1.363
		c0.069,0.012,0.139,0.018,0.206,0.018c0.56,0,1.056-0.4,1.156-0.971l3.737-21.197C24.305,19.336,23.877,18.727,23.238,18.613
		L23.238,18.613z"/>
	<path fill="#C09628" d="M59.027,0H35.307c-0.648,0-1.176,0.527-1.176,1.176c0,0.65,0.527,1.176,1.176,1.176h22.545v8.387h-55.5
		V2.352h22.459c0.648,0,1.176-0.525,1.176-1.176C25.986,0.527,25.459,0,24.811,0H1.176C0.525,0,0,0.527,0,1.176v47.648
		C0,49.473,0.525,50,1.176,50h57.852c0.65,0,1.176-0.527,1.176-1.176V1.176C60.203,0.527,59.678,0,59.027,0z M2.352,47.648V13.09
		h55.5v34.559H2.352z"/>
	<circle fill="#C09628" cx="30.102" cy="1.176" r="1.176"/>
	<circle fill="#C09628" cx="7.547" cy="6.545" r="1.176"/>
	<circle fill="#C09628" cx="12.25" cy="6.545" r="1.176"/>
	<circle fill="#C09628" cx="16.954" cy="6.545" r="1.176"/>
</g>
</svg>
