<?xml version="1.0" encoding="utf-8"?>
<!-- Generator: Adobe Illustrator 16.0.0, SVG Export Plug-In . SVG Version: 6.00 Build 0)  -->
<!DOCTYPE svg PUBLIC "-//W3C//DTD SVG 1.1//EN" "http://www.w3.org/Graphics/SVG/1.1/DTD/svg11.dtd">
<svg version="1.1" id="Calque_1" xmlns="http://www.w3.org/2000/svg" xmlns:xlink="http://www.w3.org/1999/xlink" x="0px" y="0px"
	 width="44.182px" height="55px" viewBox="0 0 44.182 55" enable-background="new 0 0 44.182 55" xml:space="preserve">
<g>
	<path fill="#c09628" d="M36.934,28.942c0.079-1.01,0.109-2.008,0.09-2.98c-0.131-6.379-2.349-12.457-6.592-18.066
		c-3.091-4.09-6.417-6.736-7.703-7.686c-0.379-0.279-0.896-0.279-1.274,0c-1.287,0.949-4.612,3.596-7.703,7.686
		c-4.242,5.609-6.46,11.688-6.591,18.066c-0.021,0.973,0.011,1.971,0.09,2.98c-2.616,1.799-4.468,4.641-5.508,8.461
		c-0.569,2.092-0.87,4.416-0.87,6.717c0,2.977,0.546,5.912,1.579,8.488c0.164,0.408,0.561,0.674,0.997,0.674
		c0.017,0,0.034,0,0.051-0.002c0.456-0.02,0.849-0.328,0.98-0.768c0.361-1.225,1.318-3.541,3.649-5.305
		c1.858-1.406,3.795-1.873,5.107-2.014h17.71c1.313,0.141,3.248,0.607,5.106,2.014c2.335,1.768,3.289,4.082,3.649,5.305
		c0.13,0.438,0.522,0.746,0.98,0.768c0.017,0.002,0.034,0.002,0.051,0.002c0.437,0,0.832-0.266,0.997-0.674
		c1.033-2.572,1.579-5.508,1.579-8.488c0-2.301-0.301-4.625-0.87-6.717C41.399,33.583,39.549,30.741,36.934,28.942L36.934,28.942z
		 M22.092,2.426c1.431,1.127,4.15,3.49,6.715,6.92H15.376C17.941,5.917,20.661,3.553,22.092,2.426z M6.833,45.495
		c-1.499,1.135-2.525,2.453-3.228,3.664c-0.386-1.611-0.585-3.314-0.585-5.039c0-2.156,0.35-8.955,4.518-12.676
		c0.629,4.143,2.005,8.336,3.935,11.877C10.083,43.647,8.437,44.282,6.833,45.495L6.833,45.495z M13.783,43.045
		c-2.885-4.914-4.592-11.385-4.475-17.041c0.118-5.768,2.129-10.658,4.583-14.51h16.401c2.452,3.852,4.464,8.742,4.582,14.51
		c0.116,5.656-1.591,12.127-4.475,17.041H13.783z M40.577,49.157c-0.7-1.209-1.729-2.527-3.229-3.662
		c-1.603-1.213-3.249-1.848-4.638-2.174c1.929-3.541,3.305-7.734,3.935-11.877c4.166,3.721,4.516,10.52,4.516,12.676
		C41.161,45.844,40.962,47.547,40.577,49.157L40.577,49.157z"/>
	<path fill="#c09628" d="M1.469,22.502l2.85-1.121c0.552-0.217,0.822-0.842,0.605-1.393c-0.217-0.553-0.84-0.824-1.393-0.607
		l-2.849,1.121c-0.552,0.217-0.825,0.842-0.607,1.393c0.167,0.424,0.571,0.682,1.001,0.682C1.207,22.577,1.339,22.553,1.469,22.502z
		"/>
	<path fill="#c09628" d="M0.84,11.75l2.808,1.223c0.14,0.061,0.285,0.09,0.428,0.09c0.415,0,0.81-0.242,0.986-0.646
		c0.236-0.543-0.013-1.176-0.557-1.414L1.697,9.782C1.153,9.545,0.52,9.793,0.283,10.336C0.047,10.881,0.296,11.514,0.84,11.75z"/>
	<path fill="#c09628" d="M9.117,6.553c0.167,0.424,0.572,0.682,1,0.682c0.131,0,0.264-0.025,0.393-0.074
		c0.552-0.219,0.825-0.842,0.608-1.395l-1.122-2.85c-0.217-0.553-0.84-0.822-1.392-0.605c-0.553,0.217-0.825,0.84-0.608,1.393
		L9.117,6.553z"/>
	<path fill="#c09628" d="M43.501,20.502l-2.85-1.121c-0.553-0.217-1.177,0.055-1.394,0.607c-0.217,0.551,0.055,1.176,0.607,1.393
		l2.85,1.121c0.129,0.051,0.262,0.074,0.393,0.074c0.428,0,0.834-0.258,0.999-0.682C44.324,21.344,44.053,20.719,43.501,20.502
		L43.501,20.502z"/>
	<path fill="#c09628" d="M40.107,13.063c0.143,0,0.289-0.029,0.429-0.09l2.808-1.223c0.544-0.236,0.793-0.869,0.556-1.414
		c-0.237-0.543-0.87-0.791-1.413-0.555l-2.808,1.221c-0.544,0.238-0.793,0.871-0.557,1.414
		C39.299,12.821,39.694,13.063,40.107,13.063z"/>
	<path fill="#c09628" d="M33.672,7.161c0.129,0.049,0.262,0.074,0.394,0.074c0.429,0,0.833-0.258,1-0.682l1.12-2.85
		c0.217-0.553-0.054-1.176-0.605-1.393c-0.553-0.217-1.176,0.055-1.393,0.605l-1.121,2.85C32.85,6.319,33.12,6.942,33.672,7.161z"/>
	<path fill="#c09628" d="M22.153,18.977c-4.3,0-7.8,3.498-7.8,7.801c0,4.299,3.5,7.799,7.8,7.799s7.8-3.5,7.8-7.799
		C29.953,22.475,26.453,18.977,22.153,18.977z M22.153,32.428c-3.116,0-5.651-2.535-5.651-5.65c0-3.117,2.535-5.652,5.651-5.652
		s5.651,2.535,5.651,5.652C27.805,29.893,25.27,32.428,22.153,32.428z"/>
	<path fill="#c09628" d="M31.007,47.602h-4.081c-0.593,0-1.074,0.482-1.074,1.074c0,0.594,0.481,1.074,1.074,1.074h3.007v0.137
		c0,1.635-1.33,2.965-2.964,2.965h-9.754c-1.635,0-2.965-1.33-2.965-2.965V49.75h3.008c0.593,0,1.074-0.48,1.074-1.074
		c0-0.592-0.481-1.074-1.074-1.074h-4.082c-0.593,0-1.074,0.482-1.074,1.074v1.211c0,2.818,2.295,5.113,5.113,5.113h9.754
		c2.818,0,5.112-2.295,5.112-5.113v-1.211C32.081,48.083,31.601,47.602,31.007,47.602z"/>
	<ellipse fill="#c09628" cx="22.106" cy="48.689" rx="1.074" ry="1.074"/>
</g>
<g display="none">
	<circle display="inline" fill="#c09628" cx="-245.741" cy="50.405" r="1.236"/>
	<path display="inline" fill="#c09628" d="M-215.317,28.937h-2.225c-0.998-6.489-4.215-12.444-9.138-16.868
		c-2.233-2.006-4.743-3.626-7.435-4.826h11.485c0.535,1.806,2.208,3.127,4.185,3.127c2.407,0,4.365-1.958,4.365-4.364
		c0-2.407-1.958-4.364-4.365-4.364c-1.978,0-3.65,1.321-4.185,3.128h-46.222c-0.535-1.807-2.207-3.128-4.185-3.128
		c-2.407,0-4.365,1.957-4.365,4.364c0,2.406,1.958,4.364,4.365,4.364c1.978,0,3.65-1.321,4.185-3.127h11.469
		c-8.64,3.855-15.056,11.888-16.557,21.694h-2.225c-0.683,0-1.237,0.554-1.237,1.237v6.254c0,0.684,0.554,1.236,1.237,1.236h6.255
		c0.683,0,1.238-0.553,1.238-1.236v-6.254c0-0.684-0.555-1.237-1.238-1.237h-1.526c1.985-11.822,11.815-20.736,23.741-21.622
		l-12.289,20.183c-0.256,0.421-0.238,0.956,0.048,1.358l6.729,9.483v12.064c0,0.684,0.554,1.238,1.236,1.238h0.664
		c0.684,0,1.237-0.555,1.237-1.238c0-0.475-0.269-0.889-0.664-1.096V39.182h10.568v9.986h-0.011c-0.683,0-1.237,0.553-1.237,1.234
		c0,0.684,0.554,1.238,1.237,1.238h1.248c0.683,0,1.237-0.555,1.237-1.238V38.338l6.728-9.483c0.286-0.402,0.304-0.938,0.047-1.358
		l-12.256-20.13c11.647,1.141,21.174,9.951,23.125,21.569h-1.526c-0.683,0-1.237,0.554-1.237,1.237v6.254
		c0,0.684,0.554,1.236,1.237,1.236h6.255c0.683,0,1.237-0.553,1.237-1.236v-6.254C-214.081,29.49-214.634,28.937-215.317,28.937
		L-215.317,28.937z M-218.445,4.114c1.043,0,1.891,0.849,1.891,1.891c0,1.043-0.848,1.892-1.891,1.892
		c-1.042,0-1.892-0.849-1.892-1.892C-220.337,4.963-219.488,4.114-218.445,4.114L-218.445,4.114z M-273.037,7.896
		c-1.043,0-1.891-0.849-1.891-1.892c0-1.042,0.848-1.891,1.891-1.891c1.042,0,1.892,0.849,1.892,1.891
		C-271.146,7.048-271.995,7.896-273.037,7.896z M-271.146,31.409v3.783h-3.783v-3.783H-271.146z M-233.452,28.088l-6.116,8.622
		h-11.764l-6.116-8.622l10.761-17.674v14.163c0,0.683,0.553,1.236,1.237,1.236c0.683,0,1.236-0.554,1.236-1.236V10.414
		L-233.452,28.088z M-216.554,35.192h-3.782v-3.783h3.782V35.192z"/>
</g>
<g display="none">
	<path display="inline" fill="#c09628" d="M-86.394,28.659h-12.813c-0.648,0-1.176,0.527-1.176,1.176
		c0,0.65,0.527,1.176,1.176,1.176h12.813c0.649,0,1.176-0.525,1.176-1.176C-85.218,29.186-85.744,28.659-86.394,28.659
		L-86.394,28.659z"/>
	<path display="inline" fill="#c09628" d="M-86.394,34.016h-7.863c-0.649,0-1.176,0.527-1.176,1.176c0,0.65,0.526,1.176,1.176,1.176
		h7.863c0.649,0,1.176-0.525,1.176-1.176C-85.218,34.543-85.744,34.016-86.394,34.016z"/>
	<path display="inline" fill="#c09628" d="M-86.394,39.375h-12.813c-0.648,0-1.176,0.525-1.176,1.176
		c0,0.648,0.527,1.176,1.176,1.176h12.813c0.649,0,1.176-0.527,1.176-1.176C-85.218,39.901-85.744,39.375-86.394,39.375
		L-86.394,39.375z"/>
	<path display="inline" fill="#c09628" d="M-111.005,27.038c-0.459-0.461-1.204-0.459-1.663,0c-0.459,0.459-0.459,1.203,0,1.662
		l6.738,6.738l-6.738,6.738c-0.459,0.459-0.459,1.205,0,1.664c0.229,0.229,0.531,0.344,0.832,0.344s0.602-0.115,0.831-0.344
		l7.571-7.57c0.459-0.459,0.459-1.203,0-1.664L-111.005,27.038z"/>
	<path display="inline" fill="#c09628" d="M-124.149,27.038c-0.459-0.461-1.204-0.461-1.663,0l-7.57,7.568
		c-0.459,0.459-0.459,1.205,0,1.664l7.57,7.57c0.229,0.229,0.53,0.344,0.831,0.344s0.602-0.115,0.832-0.344
		c0.459-0.459,0.459-1.205,0-1.664l-6.739-6.738l6.739-6.738C-123.69,28.241-123.69,27.497-124.149,27.038L-124.149,27.038z"/>
	<path display="inline" fill="#c09628" d="M-116.336,23.538c-0.639-0.113-1.25,0.314-1.362,0.953l-3.738,21.195
		c-0.113,0.641,0.314,1.25,0.954,1.363c0.069,0.012,0.138,0.018,0.206,0.018c0.56,0,1.056-0.4,1.156-0.971l3.738-21.197
		C-115.269,24.26-115.696,23.651-116.336,23.538L-116.336,23.538z"/>
	<path display="inline" fill="#c09628" d="M-80.546,4.924h-23.721c-0.649,0-1.176,0.527-1.176,1.176c0,0.65,0.526,1.176,1.176,1.176
		h22.545v8.387h-55.501V7.276h22.459c0.649,0,1.176-0.525,1.176-1.176c0-0.648-0.527-1.176-1.176-1.176h-23.635
		c-0.649,0-1.176,0.527-1.176,1.176v47.648c0,0.648,0.526,1.176,1.176,1.176h57.853c0.649,0,1.176-0.527,1.176-1.176V6.1
		C-79.37,5.452-79.896,4.924-80.546,4.924z M-137.223,52.573V18.014h55.501v34.559H-137.223z"/>
	<circle display="inline" fill="#c09628" cx="-109.472" cy="6.1" r="1.176"/>
	<circle display="inline" fill="#c09628" cx="-132.027" cy="11.469" r="1.176"/>
	<circle display="inline" fill="#c09628" cx="-127.323" cy="11.469" r="1.176"/>
	<circle display="inline" fill="#c09628" cx="-122.62" cy="11.469" r="1.176"/>
</g>
</svg>
