<?xml version="1.0" encoding="utf-8"?>
<!-- Generator: Adobe Illustrator 16.0.0, SVG Export Plug-In . SVG Version: 6.00 Build 0)  -->
<!DOCTYPE svg PUBLIC "-//W3C//DTD SVG 1.1//EN" "http://www.w3.org/Graphics/SVG/1.1/DTD/svg11.dtd">
<svg version="1.1" id="Calque_1" xmlns="http://www.w3.org/2000/svg" xmlns:xlink="http://www.w3.org/1999/xlink" x="0px" y="0px"
	 width="63.32px" height="50px" viewBox="0 0 63.32 50" enable-background="new 0 0 63.32 50" xml:space="preserve">
<g display="none">
	<path display="inline" fill="#FFFFFF" d="M46.503,26.442c0.079-1.01,0.109-2.008,0.09-2.98c-0.131-6.379-2.349-12.457-6.592-18.066
		c-3.091-4.09-6.417-6.736-7.703-7.686c-0.379-0.279-0.896-0.279-1.274,0c-1.287,0.949-4.612,3.596-7.703,7.686
		c-4.242,5.609-6.46,11.688-6.591,18.066c-0.021,0.973,0.011,1.971,0.09,2.98c-2.616,1.799-4.468,4.641-5.508,8.461
		c-0.569,2.092-0.87,4.416-0.87,6.717c0,2.977,0.546,5.912,1.579,8.488c0.164,0.408,0.561,0.674,0.997,0.674
		c0.017,0,0.034,0,0.051-0.002c0.456-0.02,0.849-0.328,0.98-0.768c0.361-1.225,1.318-3.541,3.649-5.305
		c1.858-1.406,3.795-1.873,5.107-2.014h17.71c1.313,0.141,3.248,0.607,5.106,2.014c2.335,1.768,3.289,4.082,3.649,5.305
		c0.13,0.438,0.522,0.746,0.98,0.768c0.017,0.002,0.034,0.002,0.051,0.002c0.437,0,0.832-0.266,0.997-0.674
		c1.033-2.572,1.579-5.508,1.579-8.488c0-2.301-0.301-4.625-0.87-6.717C50.969,31.083,49.118,28.241,46.503,26.442L46.503,26.442z
		 M31.661-0.074c1.431,1.127,4.15,3.49,6.715,6.92H24.945C27.511,3.417,30.23,1.053,31.661-0.074z M16.402,42.995
		c-1.499,1.135-2.525,2.453-3.228,3.664c-0.386-1.611-0.585-3.314-0.585-5.039c0-2.156,0.35-8.955,4.518-12.676
		c0.629,4.143,2.005,8.336,3.935,11.877C19.652,41.147,18.006,41.782,16.402,42.995L16.402,42.995z M23.353,40.545
		c-2.885-4.914-4.592-11.385-4.475-17.041c0.118-5.768,2.129-10.658,4.583-14.51h16.401c2.452,3.852,4.464,8.742,4.582,14.51
		c0.116,5.656-1.591,12.127-4.475,17.041H23.353z M50.146,46.657c-0.7-1.209-1.729-2.527-3.229-3.662
		c-1.603-1.213-3.249-1.848-4.638-2.174c1.929-3.541,3.305-7.734,3.935-11.877c4.166,3.721,4.516,10.52,4.516,12.676
		C50.73,43.344,50.531,45.047,50.146,46.657L50.146,46.657z"/>
	<path display="inline" fill="#FFFFFF" d="M11.038,20.002l2.85-1.121c0.552-0.217,0.822-0.842,0.605-1.393
		c-0.217-0.553-0.84-0.824-1.393-0.607l-2.849,1.121c-0.552,0.217-0.825,0.842-0.607,1.393c0.167,0.424,0.571,0.682,1.001,0.682
		C10.776,20.077,10.908,20.053,11.038,20.002z"/>
	<path display="inline" fill="#FFFFFF" d="M10.409,9.25l2.808,1.223c0.14,0.061,0.285,0.09,0.428,0.09
		c0.415,0,0.81-0.242,0.986-0.646c0.236-0.543-0.013-1.176-0.557-1.414l-2.808-1.221c-0.544-0.236-1.178,0.012-1.414,0.555
		C9.616,8.381,9.865,9.014,10.409,9.25z"/>
	<path display="inline" fill="#FFFFFF" d="M18.687,4.053c0.167,0.424,0.572,0.682,1,0.682c0.131,0,0.264-0.025,0.393-0.074
		c0.552-0.219,0.825-0.842,0.608-1.395l-1.122-2.85c-0.217-0.553-0.84-0.822-1.392-0.605c-0.553,0.217-0.825,0.84-0.608,1.393
		L18.687,4.053z"/>
	<path display="inline" fill="#FFFFFF" d="M53.07,18.002l-2.85-1.121c-0.553-0.217-1.177,0.055-1.394,0.607
		c-0.217,0.551,0.055,1.176,0.607,1.393l2.85,1.121c0.129,0.051,0.262,0.074,0.393,0.074c0.428,0,0.834-0.258,0.999-0.682
		C53.894,18.844,53.622,18.219,53.07,18.002L53.07,18.002z"/>
	<path display="inline" fill="#FFFFFF" d="M49.677,10.563c0.143,0,0.289-0.029,0.429-0.09l2.808-1.223
		c0.544-0.236,0.793-0.869,0.556-1.414c-0.237-0.543-0.87-0.791-1.413-0.555l-2.808,1.221c-0.544,0.238-0.793,0.871-0.557,1.414
		C48.868,10.321,49.264,10.563,49.677,10.563z"/>
	<path display="inline" fill="#FFFFFF" d="M43.241,4.661c0.129,0.049,0.262,0.074,0.394,0.074c0.429,0,0.833-0.258,1-0.682
		l1.12-2.85c0.217-0.553-0.054-1.176-0.605-1.393c-0.553-0.217-1.176,0.055-1.393,0.605l-1.121,2.85
		C42.419,3.819,42.689,4.442,43.241,4.661z"/>
	<path display="inline" fill="#FFFFFF" d="M31.723,16.477c-4.3,0-7.8,3.498-7.8,7.801c0,4.299,3.5,7.799,7.8,7.799
		s7.8-3.5,7.8-7.799C39.522,19.975,36.022,16.477,31.723,16.477z M31.723,29.928c-3.116,0-5.651-2.535-5.651-5.65
		c0-3.117,2.535-5.652,5.651-5.652s5.651,2.535,5.651,5.652C37.374,27.393,34.839,29.928,31.723,29.928z"/>
	<path display="inline" fill="#FFFFFF" d="M40.576,45.102h-4.081c-0.593,0-1.074,0.482-1.074,1.074c0,0.594,0.481,1.074,1.074,1.074
		h3.007v0.137c0,1.635-1.33,2.965-2.964,2.965h-9.754c-1.635,0-2.965-1.33-2.965-2.965V47.25h3.008c0.593,0,1.074-0.48,1.074-1.074
		c0-0.592-0.481-1.074-1.074-1.074h-4.082c-0.593,0-1.074,0.482-1.074,1.074v1.211c0,2.818,2.295,5.113,5.113,5.113h9.754
		c2.818,0,5.112-2.295,5.112-5.113v-1.211C41.65,45.583,41.17,45.102,40.576,45.102z"/>
	<ellipse display="inline" fill="#FFFFFF" cx="31.676" cy="46.189" rx="1.074" ry="1.074"/>
</g>
<g>
	<circle fill="#C09628" cx="31.66" cy="48.764" r="1.236"/>
	<path fill="#C09628" d="M62.084,27.296h-2.225c-0.998-6.489-4.215-12.444-9.139-16.868c-2.232-2.006-4.743-3.626-7.436-4.826
		h11.486c0.534,1.806,2.207,3.127,4.185,3.127c2.407,0,4.364-1.958,4.364-4.364C63.32,1.957,61.363,0,58.956,0
		c-1.978,0-3.649,1.321-4.185,3.128H8.549C8.014,1.321,6.342,0,4.364,0C1.957,0,0,1.957,0,4.364c0,2.406,1.957,4.364,4.364,4.364
		c1.978,0,3.65-1.321,4.185-3.127h11.469C11.378,9.457,4.962,17.489,3.461,27.296H1.236C0.553,27.296,0,27.85,0,28.533v6.254
		c0,0.684,0.553,1.236,1.236,1.236h6.256c0.683,0,1.237-0.553,1.237-1.236v-6.254c0-0.684-0.555-1.237-1.237-1.237H5.966
		C7.951,15.474,17.781,6.56,29.707,5.674L17.418,25.856c-0.256,0.421-0.238,0.956,0.048,1.358l6.729,9.483v12.064
		c0,0.684,0.554,1.238,1.236,1.238h0.664c0.684,0,1.237-0.555,1.237-1.238c0-0.475-0.27-0.889-0.664-1.096V37.542h10.568v9.986
		h-0.011c-0.683,0-1.237,0.553-1.237,1.234c0,0.684,0.555,1.238,1.237,1.238h1.247c0.684,0,1.238-0.555,1.238-1.238V36.698
		l6.727-9.483c0.287-0.402,0.305-0.938,0.048-1.358L34.229,5.727c11.647,1.141,21.174,9.951,23.125,21.569h-1.526
		c-0.683,0-1.236,0.554-1.236,1.237v6.254c0,0.684,0.554,1.236,1.236,1.236h6.256c0.684,0,1.236-0.553,1.236-1.236v-6.254
		C63.32,27.85,62.768,27.296,62.084,27.296L62.084,27.296z M58.956,2.474c1.043,0,1.892,0.849,1.892,1.891
		c0,1.043-0.849,1.892-1.892,1.892c-1.042,0-1.892-0.849-1.892-1.892C57.064,3.322,57.914,2.474,58.956,2.474L58.956,2.474z
		 M4.364,6.256c-1.043,0-1.892-0.849-1.892-1.892c0-1.042,0.849-1.891,1.892-1.891c1.042,0,1.892,0.849,1.892,1.891
		C6.256,5.407,5.406,6.256,4.364,6.256z M6.256,29.769v3.783H2.473v-3.783H6.256z M43.949,26.447l-6.115,8.622H26.07l-6.116-8.622
		L30.715,8.773v14.163c0,0.683,0.554,1.236,1.237,1.236c0.683,0,1.236-0.554,1.236-1.236V8.773L43.949,26.447z M60.848,33.551
		h-3.783v-3.783h3.783V33.551z"/>
</g>
<g display="none">
	<path display="inline" fill="#C09628" d="M-76.824,26.159h-12.813c-0.648,0-1.176,0.527-1.176,1.176
		c0,0.65,0.527,1.176,1.176,1.176h12.813c0.649,0,1.176-0.525,1.176-1.176C-75.648,26.686-76.175,26.159-76.824,26.159
		L-76.824,26.159z"/>
	<path display="inline" fill="#C09628" d="M-76.824,31.516h-7.863c-0.649,0-1.176,0.527-1.176,1.176c0,0.65,0.526,1.176,1.176,1.176
		h7.863c0.649,0,1.176-0.525,1.176-1.176C-75.648,32.043-76.175,31.516-76.824,31.516z"/>
	<path display="inline" fill="#C09628" d="M-76.824,36.875h-12.813c-0.648,0-1.176,0.525-1.176,1.176
		c0,0.648,0.527,1.176,1.176,1.176h12.813c0.649,0,1.176-0.527,1.176-1.176C-75.648,37.401-76.175,36.875-76.824,36.875
		L-76.824,36.875z"/>
	<path display="inline" fill="#C09628" d="M-101.436,24.538c-0.459-0.461-1.204-0.459-1.663,0c-0.459,0.459-0.459,1.203,0,1.662
		l6.738,6.738l-6.738,6.738c-0.459,0.459-0.459,1.205,0,1.664c0.229,0.229,0.531,0.344,0.832,0.344s0.602-0.115,0.831-0.344
		l7.571-7.57c0.459-0.459,0.459-1.203,0-1.664L-101.436,24.538z"/>
	<path display="inline" fill="#C09628" d="M-114.58,24.538c-0.459-0.461-1.204-0.461-1.663,0l-7.57,7.568
		c-0.459,0.459-0.459,1.205,0,1.664l7.57,7.57c0.229,0.229,0.53,0.344,0.831,0.344s0.602-0.115,0.832-0.344
		c0.459-0.459,0.459-1.205,0-1.664l-6.739-6.738l6.739-6.738C-114.121,25.741-114.121,24.997-114.58,24.538L-114.58,24.538z"/>
	<path display="inline" fill="#C09628" d="M-106.767,21.038c-0.639-0.113-1.25,0.314-1.362,0.953l-3.738,21.195
		c-0.113,0.641,0.314,1.25,0.954,1.363c0.069,0.012,0.138,0.018,0.206,0.018c0.56,0,1.056-0.4,1.156-0.971l3.738-21.197
		C-105.7,21.76-106.127,21.151-106.767,21.038L-106.767,21.038z"/>
	<path display="inline" fill="#C09628" d="M-70.977,2.424h-23.721c-0.649,0-1.176,0.527-1.176,1.176c0,0.65,0.526,1.176,1.176,1.176
		h22.545v8.387h-55.501V4.776h22.459c0.649,0,1.176-0.525,1.176-1.176c0-0.648-0.527-1.176-1.176-1.176h-23.635
		c-0.649,0-1.176,0.527-1.176,1.176v47.648c0,0.648,0.526,1.176,1.176,1.176h57.853c0.649,0,1.176-0.527,1.176-1.176V3.6
		C-69.801,2.952-70.327,2.424-70.977,2.424z M-127.653,50.073V15.514h55.501v34.559H-127.653z"/>
	<circle display="inline" fill="#C09628" cx="-99.903" cy="3.6" r="1.176"/>
	<circle display="inline" fill="#C09628" cx="-122.458" cy="8.969" r="1.176"/>
	<circle display="inline" fill="#C09628" cx="-117.754" cy="8.969" r="1.176"/>
	<circle display="inline" fill="#C09628" cx="-113.05" cy="8.969" r="1.176"/>
</g>
</svg>
